<svg width="40" height="74" viewBox="0 0 40 74" fill="none" xmlns="http://www.w3.org/2000/svg">
<path d="M38.5879 73.3569C38.5732 72.6811 38.3839 71.957 38.0713 71.3501C37.6759 70.5826 37.1666 70.144 36.7285 70.0776L36.2236 70.0005L36.3105 69.4976C36.3298 69.3867 36.3521 69.2875 36.3672 69.2173C36.3839 69.1395 36.3912 69.0999 36.3936 69.0718C36.3938 69.0682 36.3935 69.0653 36.3936 69.063C36.3919 69.0605 36.3894 69.0577 36.3867 69.0542C36.3642 69.0255 36.3283 68.994 36.2363 68.9214C36.164 68.8643 36.0263 68.7599 35.9209 68.6196C35.799 68.4573 35.7182 68.2489 35.7334 67.9946C35.7361 67.9503 35.7439 67.906 35.752 67.8618C35.3583 67.6418 35.1108 67.2662 34.9375 66.8862C34.8141 66.6156 34.7139 66.3142 34.6211 66.021C34.5255 65.719 34.4371 65.4239 34.3291 65.1265C34.1139 64.5341 33.846 64.0052 33.4102 63.6118C32.9856 63.2288 32.3547 62.9332 31.332 62.895L29.4492 62.8247L31.1182 61.9517C31.2525 61.8815 31.4179 61.6803 31.5254 61.3979C31.5565 61.3161 31.5757 61.2369 31.5898 61.1665C30.7314 61.0513 30.1087 60.882 29.665 60.6519H29.6641C29.2432 60.4329 28.9453 60.0299 28.8848 59.5786C28.8463 59.2916 28.9087 59.0041 29.0693 58.7583C29.0109 58.743 28.9395 58.732 28.8516 58.7319H27.292V57.0386L27.3496 56.9292C29.4901 52.8542 28.5529 48.8297 26.9707 44.4136C25.4057 40.0455 23.1943 35.2827 23.1387 30.0181L23.1328 29.5132H23.3809C23.4412 29.1752 23.5825 28.9041 23.8008 28.6978C23.8879 28.6154 23.9829 28.5498 24.0771 28.4956C24.0673 28.4896 24.0585 28.4812 24.0479 28.4751C23.8549 28.3658 23.6384 28.3127 23.5801 28.2993L23.6357 27.3149C24.1653 27.2551 24.5766 26.9318 25.1357 26.5024C25.4722 26.2441 25.8706 25.9437 26.3564 25.7729C26.1809 25.6476 25.9534 25.5309 25.6904 25.436C25.0793 25.2157 24.4174 25.1396 24.126 25.1646L23.583 25.2104V23.2896H24.0322C25.3099 22.3298 25.9733 21.2407 26.2275 20.0884C26.493 18.885 26.324 17.5627 25.8574 16.1792C24.9193 13.3978 22.8345 10.5259 21.0527 8.17041L20.7129 7.72217L21.1533 7.46338L20.6982 7.21143L21.417 6.76025C21.6937 6.58671 22.0019 6.4158 22.334 6.26709C22.2303 6.17506 22.0819 6.09673 21.8828 6.03564C21.6942 5.9778 21.4965 5.94822 21.332 5.93701C21.1474 5.92445 21.0644 5.93915 21.084 5.93408L20.458 6.09619V4.89404L20.7031 4.74854C21.3816 4.34641 21.835 3.61921 21.835 2.78857C21.8348 1.52811 20.8059 0.499512 19.5449 0.499512C18.2857 0.499661 17.258 1.52762 17.2578 2.78857C17.2578 3.61935 17.7107 4.34639 18.3887 4.74951L18.6328 4.89404V6.09619L18.0078 5.93408C18.0262 5.93898 17.9431 5.92453 17.7598 5.93701C17.5954 5.94822 17.3976 5.9778 17.209 6.03564C16.9983 6.10027 16.8442 6.18364 16.7402 6.28271C17.0712 6.43788 17.3738 6.5977 17.6514 6.76221L18.4023 7.20654L17.9365 7.46436L18.3789 7.72314L18.0391 8.17139C16.2572 10.5269 14.1724 13.3989 13.2344 16.1802C12.7678 17.5637 12.5986 18.8861 12.8643 20.0894C13.1187 21.2415 13.7825 22.33 15.0605 23.2896H15.5088V25.2104L14.9668 25.1646C14.6748 25.1396 14.0125 25.2157 13.4014 25.436C13.1381 25.531 12.91 25.6474 12.7344 25.7729C13.2204 25.9437 13.6187 26.244 13.9551 26.5024C14.514 26.9318 14.9251 27.255 15.4551 27.3149L15.5117 28.2993C15.4536 28.3127 15.237 28.3658 15.0439 28.4751C15.0328 28.4814 15.0229 28.4894 15.0127 28.4956C15.1073 28.55 15.2025 28.6151 15.29 28.6978C15.5085 28.9042 15.6506 29.175 15.7109 29.5132H15.959L15.9531 30.0181C15.8975 35.2828 13.685 40.0454 12.1201 44.4136C10.538 48.8298 9.60204 52.8541 11.7432 56.9292L11.7998 57.0386V58.7319H10.2412C10.1519 58.7319 10.0795 58.7427 10.0205 58.7583C10.1814 59.0041 10.2442 59.2906 10.2061 59.5776C10.1461 60.0286 9.84962 60.4317 9.42969 60.6509L9.42773 60.6519L9.22461 60.7476C8.79881 60.9296 8.23575 61.0679 7.5 61.1665C7.5141 61.237 7.53517 61.316 7.56641 61.3979C7.67393 61.68 7.83822 61.8813 7.97266 61.9517L9.64258 62.8247L7.75977 62.895C6.73657 62.9332 6.1052 63.2296 5.68066 63.6128C5.24516 64.0061 4.97768 64.5343 4.7627 65.1265C4.65473 65.4239 4.56614 65.7191 4.4707 66.021C4.37807 66.314 4.27846 66.6157 4.15527 66.8862C3.98212 67.2663 3.73385 67.6419 3.33984 67.8618C3.34795 67.9062 3.35676 67.9501 3.35938 67.9946C3.3742 68.2492 3.29285 68.4575 3.1709 68.6196C3.06547 68.7598 2.92861 68.8644 2.85645 68.9214C2.76437 68.9941 2.72816 69.0249 2.70605 69.0532L2.70508 69.0552L2.69727 69.064C2.69736 69.0661 2.69701 69.0687 2.69727 69.0718C2.69957 69.0996 2.70679 69.1394 2.72363 69.2173C2.73883 69.2875 2.76201 69.3867 2.78125 69.4976L2.86816 70.0005L2.36328 70.0776C1.92534 70.1439 1.41577 70.5818 1.02051 71.3491C0.707969 71.956 0.518829 72.6809 0.503906 73.3569H38.5879Z" fill="#191817"/>
<path d="M38.5879 73.3569C38.5732 72.6811 38.3839 71.957 38.0713 71.3501C37.6759 70.5826 37.1666 70.144 36.7285 70.0776L36.2236 70.0005L36.3105 69.4976C36.3298 69.3867 36.3521 69.2875 36.3672 69.2173C36.3839 69.1395 36.3912 69.0999 36.3936 69.0718C36.3938 69.0682 36.3935 69.0653 36.3936 69.063C36.3919 69.0605 36.3894 69.0577 36.3867 69.0542C36.3642 69.0255 36.3283 68.994 36.2363 68.9214C36.164 68.8643 36.0263 68.7599 35.9209 68.6196C35.799 68.4573 35.7182 68.2489 35.7334 67.9946C35.7361 67.9503 35.7439 67.906 35.752 67.8618C35.3583 67.6418 35.1108 67.2662 34.9375 66.8862C34.8141 66.6156 34.7139 66.3142 34.6211 66.021C34.5255 65.719 34.4371 65.4239 34.3291 65.1265C34.1139 64.5341 33.846 64.0052 33.4102 63.6118C32.9856 63.2288 32.3547 62.9332 31.332 62.895L29.4492 62.8247L31.1182 61.9517C31.2525 61.8815 31.4179 61.6803 31.5254 61.3979C31.5565 61.3161 31.5757 61.2369 31.5898 61.1665C30.7314 61.0513 30.1087 60.882 29.665 60.6519H29.6641C29.2432 60.4329 28.9453 60.0299 28.8848 59.5786C28.8463 59.2916 28.9087 59.0041 29.0693 58.7583C29.0109 58.743 28.9395 58.732 28.8516 58.7319H27.292V57.0386L27.3496 56.9292C29.4901 52.8542 28.5529 48.8297 26.9707 44.4136C25.4057 40.0455 23.1943 35.2827 23.1387 30.0181L23.1328 29.5132H23.3809C23.4412 29.1752 23.5825 28.9041 23.8008 28.6978C23.8879 28.6154 23.9829 28.5498 24.0771 28.4956C24.0673 28.4896 24.0585 28.4812 24.0479 28.4751C23.8549 28.3658 23.6384 28.3127 23.5801 28.2993L23.6357 27.3149C24.1653 27.2551 24.5766 26.9318 25.1357 26.5024C25.4722 26.2441 25.8706 25.9437 26.3564 25.7729C26.1809 25.6476 25.9534 25.5309 25.6904 25.436C25.0793 25.2157 24.4174 25.1396 24.126 25.1646L23.583 25.2104V23.2896H24.0322C25.3099 22.3298 25.9733 21.2407 26.2275 20.0884C26.493 18.885 26.324 17.5627 25.8574 16.1792C24.9193 13.3978 22.8345 10.5259 21.0527 8.17041L20.7129 7.72217L21.1533 7.46338L20.6982 7.21143L21.417 6.76025C21.6937 6.58671 22.0019 6.4158 22.334 6.26709C22.2303 6.17506 22.0819 6.09673 21.8828 6.03564C21.6942 5.9778 21.4965 5.94822 21.332 5.93701C21.1474 5.92445 21.0644 5.93915 21.084 5.93408L20.458 6.09619V4.89404L20.7031 4.74854C21.3816 4.34641 21.835 3.61921 21.835 2.78857C21.8348 1.52811 20.8059 0.499512 19.5449 0.499512C18.2857 0.499661 17.258 1.52762 17.2578 2.78857C17.2578 3.61935 17.7107 4.34639 18.3887 4.74951L18.6328 4.89404V6.09619L18.0078 5.93408C18.0262 5.93898 17.9431 5.92453 17.7598 5.93701C17.5954 5.94822 17.3976 5.9778 17.209 6.03564C16.9983 6.10027 16.8442 6.18364 16.7402 6.28271C17.0712 6.43788 17.3738 6.5977 17.6514 6.76221L18.4023 7.20654L17.9365 7.46436L18.3789 7.72314L18.0391 8.17139C16.2572 10.5269 14.1724 13.3989 13.2344 16.1802C12.7678 17.5637 12.5986 18.8861 12.8643 20.0894C13.1187 21.2415 13.7825 22.33 15.0605 23.2896H15.5088V25.2104L14.9668 25.1646C14.6748 25.1396 14.0125 25.2157 13.4014 25.436C13.1381 25.531 12.91 25.6474 12.7344 25.7729C13.2204 25.9437 13.6187 26.244 13.9551 26.5024C14.514 26.9318 14.9251 27.255 15.4551 27.3149L15.5117 28.2993C15.4536 28.3127 15.237 28.3658 15.0439 28.4751C15.0328 28.4814 15.0229 28.4894 15.0127 28.4956C15.1073 28.55 15.2025 28.6151 15.29 28.6978C15.5085 28.9042 15.6506 29.175 15.7109 29.5132H15.959L15.9531 30.0181C15.8975 35.2828 13.685 40.0454 12.1201 44.4136C10.538 48.8298 9.60204 52.8541 11.7432 56.9292L11.7998 57.0386V58.7319H10.2412C10.1519 58.7319 10.0795 58.7427 10.0205 58.7583C10.1814 59.0041 10.2442 59.2906 10.2061 59.5776C10.1461 60.0286 9.84962 60.4317 9.42969 60.6509L9.42773 60.6519L9.22461 60.7476C8.79881 60.9296 8.23575 61.0679 7.5 61.1665C7.5141 61.237 7.53517 61.316 7.56641 61.3979C7.67393 61.68 7.83822 61.8813 7.97266 61.9517L9.64258 62.8247L7.75977 62.895C6.73657 62.9332 6.1052 63.2296 5.68066 63.6128C5.24516 64.0061 4.97768 64.5343 4.7627 65.1265C4.65473 65.4239 4.56614 65.7191 4.4707 66.021C4.37807 66.314 4.27846 66.6157 4.15527 66.8862C3.98212 67.2663 3.73385 67.6419 3.33984 67.8618C3.34795 67.9062 3.35676 67.9501 3.35938 67.9946C3.3742 68.2492 3.29285 68.4575 3.1709 68.6196C3.06547 68.7598 2.92861 68.8644 2.85645 68.9214C2.76437 68.9941 2.72816 69.0249 2.70605 69.0532L2.70508 69.0552L2.69727 69.064C2.69736 69.0661 2.69701 69.0687 2.69727 69.0718C2.69957 69.0996 2.70679 69.1394 2.72363 69.2173C2.73883 69.2875 2.76201 69.3867 2.78125 69.4976L2.86816 70.0005L2.36328 70.0776C1.92534 70.1439 1.41577 70.5818 1.02051 71.3491C0.707969 71.956 0.518829 72.6809 0.503906 73.3569H38.5879Z" fill="black" fill-opacity="0.2"/>
<path d="M38.5879 73.3569C38.5732 72.6811 38.3839 71.957 38.0713 71.3501C37.6759 70.5826 37.1666 70.144 36.7285 70.0776L36.2236 70.0005L36.3105 69.4976C36.3298 69.3867 36.3521 69.2875 36.3672 69.2173C36.3839 69.1395 36.3912 69.0999 36.3936 69.0718C36.3938 69.0682 36.3935 69.0653 36.3936 69.063C36.3919 69.0605 36.3894 69.0577 36.3867 69.0542C36.3642 69.0255 36.3283 68.994 36.2363 68.9214C36.164 68.8643 36.0263 68.7599 35.9209 68.6196C35.799 68.4573 35.7182 68.2489 35.7334 67.9946C35.7361 67.9503 35.7439 67.906 35.752 67.8618C35.3583 67.6418 35.1108 67.2662 34.9375 66.8862C34.8141 66.6156 34.7139 66.3142 34.6211 66.021C34.5255 65.719 34.4371 65.4239 34.3291 65.1265C34.1139 64.5341 33.846 64.0052 33.4102 63.6118C32.9856 63.2288 32.3547 62.9332 31.332 62.895L29.4492 62.8247L31.1182 61.9517C31.2525 61.8815 31.4179 61.6803 31.5254 61.3979C31.5565 61.3161 31.5757 61.2369 31.5898 61.1665C30.7314 61.0513 30.1087 60.882 29.665 60.6519H29.6641C29.2432 60.4329 28.9453 60.0299 28.8848 59.5786C28.8463 59.2916 28.9087 59.0041 29.0693 58.7583C29.0109 58.743 28.9395 58.732 28.8516 58.7319H27.292V57.0386L27.3496 56.9292C29.4901 52.8542 28.5529 48.8297 26.9707 44.4136C25.4057 40.0455 23.1943 35.2827 23.1387 30.0181L23.1328 29.5132H23.3809C23.4412 29.1752 23.5825 28.9041 23.8008 28.6978C23.8879 28.6154 23.9829 28.5498 24.0771 28.4956C24.0673 28.4896 24.0585 28.4812 24.0479 28.4751C23.8549 28.3658 23.6384 28.3127 23.5801 28.2993L23.6357 27.3149C24.1653 27.2551 24.5766 26.9318 25.1357 26.5024C25.4722 26.2441 25.8706 25.9437 26.3564 25.7729C26.1809 25.6476 25.9534 25.5309 25.6904 25.436C25.0793 25.2157 24.4174 25.1396 24.126 25.1646L23.583 25.2104V23.2896H24.0322C25.3099 22.3298 25.9733 21.2407 26.2275 20.0884C26.493 18.885 26.324 17.5627 25.8574 16.1792C24.9193 13.3978 22.8345 10.5259 21.0527 8.17041L20.7129 7.72217L21.1533 7.46338L20.6982 7.21143L21.417 6.76025C21.6937 6.58671 22.0019 6.4158 22.334 6.26709C22.2303 6.17506 22.0819 6.09673 21.8828 6.03564C21.6942 5.9778 21.4965 5.94822 21.332 5.93701C21.1474 5.92445 21.0644 5.93915 21.084 5.93408L20.458 6.09619V4.89404L20.7031 4.74854C21.3816 4.34641 21.835 3.61921 21.835 2.78857C21.8348 1.52811 20.8059 0.499512 19.5449 0.499512C18.2857 0.499661 17.258 1.52762 17.2578 2.78857C17.2578 3.61935 17.7107 4.34639 18.3887 4.74951L18.6328 4.89404V6.09619L18.0078 5.93408C18.0262 5.93898 17.9431 5.92453 17.7598 5.93701C17.5954 5.94822 17.3976 5.9778 17.209 6.03564C16.9983 6.10027 16.8442 6.18364 16.7402 6.28271C17.0712 6.43788 17.3738 6.5977 17.6514 6.76221L18.4023 7.20654L17.9365 7.46436L18.3789 7.72314L18.0391 8.17139C16.2572 10.5269 14.1724 13.3989 13.2344 16.1802C12.7678 17.5637 12.5986 18.8861 12.8643 20.0894C13.1187 21.2415 13.7825 22.33 15.0605 23.2896H15.5088V25.2104L14.9668 25.1646C14.6748 25.1396 14.0125 25.2157 13.4014 25.436C13.1381 25.531 12.91 25.6474 12.7344 25.7729C13.2204 25.9437 13.6187 26.244 13.9551 26.5024C14.514 26.9318 14.9251 27.255 15.4551 27.3149L15.5117 28.2993C15.4536 28.3127 15.237 28.3658 15.0439 28.4751C15.0328 28.4814 15.0229 28.4894 15.0127 28.4956C15.1073 28.55 15.2025 28.6151 15.29 28.6978C15.5085 28.9042 15.6506 29.175 15.7109 29.5132H15.959L15.9531 30.0181C15.8975 35.2828 13.685 40.0454 12.1201 44.4136C10.538 48.8298 9.60204 52.8541 11.7432 56.9292L11.7998 57.0386V58.7319H10.2412C10.1519 58.7319 10.0795 58.7427 10.0205 58.7583C10.1814 59.0041 10.2442 59.2906 10.2061 59.5776C10.1461 60.0286 9.84962 60.4317 9.42969 60.6509L9.42773 60.6519L9.22461 60.7476C8.79881 60.9296 8.23575 61.0679 7.5 61.1665C7.5141 61.237 7.53517 61.316 7.56641 61.3979C7.67393 61.68 7.83822 61.8813 7.97266 61.9517L9.64258 62.8247L7.75977 62.895C6.73657 62.9332 6.1052 63.2296 5.68066 63.6128C5.24516 64.0061 4.97768 64.5343 4.7627 65.1265C4.65473 65.4239 4.56614 65.7191 4.4707 66.021C4.37807 66.314 4.27846 66.6157 4.15527 66.8862C3.98212 67.2663 3.73385 67.6419 3.33984 67.8618C3.34795 67.9062 3.35676 67.9501 3.35938 67.9946C3.3742 68.2492 3.29285 68.4575 3.1709 68.6196C3.06547 68.7598 2.92861 68.8644 2.85645 68.9214C2.76437 68.9941 2.72816 69.0249 2.70605 69.0532L2.70508 69.0552L2.69727 69.064C2.69736 69.0661 2.69701 69.0687 2.69727 69.0718C2.69957 69.0996 2.70679 69.1394 2.72363 69.2173C2.73883 69.2875 2.76201 69.3867 2.78125 69.4976L2.86816 70.0005L2.36328 70.0776C1.92534 70.1439 1.41577 70.5818 1.02051 71.3491C0.707969 71.956 0.518829 72.6809 0.503906 73.3569H38.5879Z" fill="black" fill-opacity="0.2"/>
<path d="M38.5879 73.3569C38.5732 72.6811 38.3839 71.957 38.0713 71.3501C37.6759 70.5826 37.1666 70.144 36.7285 70.0776L36.2236 70.0005L36.3105 69.4976C36.3298 69.3867 36.3521 69.2875 36.3672 69.2173C36.3839 69.1395 36.3912 69.0999 36.3936 69.0718C36.3938 69.0682 36.3935 69.0653 36.3936 69.063C36.3919 69.0605 36.3894 69.0577 36.3867 69.0542C36.3642 69.0255 36.3283 68.994 36.2363 68.9214C36.164 68.8643 36.0263 68.7599 35.9209 68.6196C35.799 68.4573 35.7182 68.2489 35.7334 67.9946C35.7361 67.9503 35.7439 67.906 35.752 67.8618C35.3583 67.6418 35.1108 67.2662 34.9375 66.8862C34.8141 66.6156 34.7139 66.3142 34.6211 66.021C34.5255 65.719 34.4371 65.4239 34.3291 65.1265C34.1139 64.5341 33.846 64.0052 33.4102 63.6118C32.9856 63.2288 32.3547 62.9332 31.332 62.895L29.4492 62.8247L31.1182 61.9517C31.2525 61.8815 31.4179 61.6803 31.5254 61.3979C31.5565 61.3161 31.5757 61.2369 31.5898 61.1665C30.7314 61.0513 30.1087 60.882 29.665 60.6519H29.6641C29.2432 60.4329 28.9453 60.0299 28.8848 59.5786C28.8463 59.2916 28.9087 59.0041 29.0693 58.7583C29.0109 58.743 28.9395 58.732 28.8516 58.7319H27.292V57.0386L27.3496 56.9292C29.4901 52.8542 28.5529 48.8297 26.9707 44.4136C25.4057 40.0455 23.1943 35.2827 23.1387 30.0181L23.1328 29.5132H23.3809C23.4412 29.1752 23.5825 28.9041 23.8008 28.6978C23.8879 28.6154 23.9829 28.5498 24.0771 28.4956C24.0673 28.4896 24.0585 28.4812 24.0479 28.4751C23.8549 28.3658 23.6384 28.3127 23.5801 28.2993L23.6357 27.3149C24.1653 27.2551 24.5766 26.9318 25.1357 26.5024C25.4722 26.2441 25.8706 25.9437 26.3564 25.7729C26.1809 25.6476 25.9534 25.5309 25.6904 25.436C25.0793 25.2157 24.4174 25.1396 24.126 25.1646L23.583 25.2104V23.2896H24.0322C25.3099 22.3298 25.9733 21.2407 26.2275 20.0884C26.493 18.885 26.324 17.5627 25.8574 16.1792C24.9193 13.3978 22.8345 10.5259 21.0527 8.17041L20.7129 7.72217L21.1533 7.46338L20.6982 7.21143L21.417 6.76025C21.6937 6.58671 22.0019 6.4158 22.334 6.26709C22.2303 6.17506 22.0819 6.09673 21.8828 6.03564C21.6942 5.9778 21.4965 5.94822 21.332 5.93701C21.1474 5.92445 21.0644 5.93915 21.084 5.93408L20.458 6.09619V4.89404L20.7031 4.74854C21.3816 4.34641 21.835 3.61921 21.835 2.78857C21.8348 1.52811 20.8059 0.499512 19.5449 0.499512C18.2857 0.499661 17.258 1.52762 17.2578 2.78857C17.2578 3.61935 17.7107 4.34639 18.3887 4.74951L18.6328 4.89404V6.09619L18.0078 5.93408C18.0262 5.93898 17.9431 5.92453 17.7598 5.93701C17.5954 5.94822 17.3976 5.9778 17.209 6.03564C16.9983 6.10027 16.8442 6.18364 16.7402 6.28271C17.0712 6.43788 17.3738 6.5977 17.6514 6.76221L18.4023 7.20654L17.9365 7.46436L18.3789 7.72314L18.0391 8.17139C16.2572 10.5269 14.1724 13.3989 13.2344 16.1802C12.7678 17.5637 12.5986 18.8861 12.8643 20.0894C13.1187 21.2415 13.7825 22.33 15.0605 23.2896H15.5088V25.2104L14.9668 25.1646C14.6748 25.1396 14.0125 25.2157 13.4014 25.436C13.1381 25.531 12.91 25.6474 12.7344 25.7729C13.2204 25.9437 13.6187 26.244 13.9551 26.5024C14.514 26.9318 14.9251 27.255 15.4551 27.3149L15.5117 28.2993C15.4536 28.3127 15.237 28.3658 15.0439 28.4751C15.0328 28.4814 15.0229 28.4894 15.0127 28.4956C15.1073 28.55 15.2025 28.6151 15.29 28.6978C15.5085 28.9042 15.6506 29.175 15.7109 29.5132H15.959L15.9531 30.0181C15.8975 35.2828 13.685 40.0454 12.1201 44.4136C10.538 48.8298 9.60204 52.8541 11.7432 56.9292L11.7998 57.0386V58.7319H10.2412C10.1519 58.7319 10.0795 58.7427 10.0205 58.7583C10.1814 59.0041 10.2442 59.2906 10.2061 59.5776C10.1461 60.0286 9.84962 60.4317 9.42969 60.6509L9.42773 60.6519L9.22461 60.7476C8.79881 60.9296 8.23575 61.0679 7.5 61.1665C7.5141 61.237 7.53517 61.316 7.56641 61.3979C7.67393 61.68 7.83822 61.8813 7.97266 61.9517L9.64258 62.8247L7.75977 62.895C6.73657 62.9332 6.1052 63.2296 5.68066 63.6128C5.24516 64.0061 4.97768 64.5343 4.7627 65.1265C4.65473 65.4239 4.56614 65.7191 4.4707 66.021C4.37807 66.314 4.27846 66.6157 4.15527 66.8862C3.98212 67.2663 3.73385 67.6419 3.33984 67.8618C3.34795 67.9062 3.35676 67.9501 3.35938 67.9946C3.3742 68.2492 3.29285 68.4575 3.1709 68.6196C3.06547 68.7598 2.92861 68.8644 2.85645 68.9214C2.76437 68.9941 2.72816 69.0249 2.70605 69.0532L2.70508 69.0552L2.69727 69.064C2.69736 69.0661 2.69701 69.0687 2.69727 69.0718C2.69957 69.0996 2.70679 69.1394 2.72363 69.2173C2.73883 69.2875 2.76201 69.3867 2.78125 69.4976L2.86816 70.0005L2.36328 70.0776C1.92534 70.1439 1.41577 70.5818 1.02051 71.3491C0.707969 71.956 0.518829 72.6809 0.503906 73.3569H38.5879Z" stroke="black"/>
<path d="M38.5879 73.3569C38.5732 72.6811 38.3839 71.957 38.0713 71.3501C37.6759 70.5826 37.1666 70.144 36.7285 70.0776L36.2236 70.0005L36.3105 69.4976C36.3298 69.3867 36.3521 69.2875 36.3672 69.2173C36.3839 69.1395 36.3912 69.0999 36.3936 69.0718C36.3938 69.0682 36.3935 69.0653 36.3936 69.063C36.3919 69.0605 36.3894 69.0577 36.3867 69.0542C36.3642 69.0255 36.3283 68.994 36.2363 68.9214C36.164 68.8643 36.0263 68.7599 35.9209 68.6196C35.799 68.4573 35.7182 68.2489 35.7334 67.9946C35.7361 67.9503 35.7439 67.906 35.752 67.8618C35.3583 67.6418 35.1108 67.2662 34.9375 66.8862C34.8141 66.6156 34.7139 66.3142 34.6211 66.021C34.5255 65.719 34.4371 65.4239 34.3291 65.1265C34.1139 64.5341 33.846 64.0052 33.4102 63.6118C32.9856 63.2288 32.3547 62.9332 31.332 62.895L29.4492 62.8247L31.1182 61.9517C31.2525 61.8815 31.4179 61.6803 31.5254 61.3979C31.5565 61.3161 31.5757 61.2369 31.5898 61.1665C30.7314 61.0513 30.1087 60.882 29.665 60.6519H29.6641C29.2432 60.4329 28.9453 60.0299 28.8848 59.5786C28.8463 59.2916 28.9087 59.0041 29.0693 58.7583C29.0109 58.743 28.9395 58.732 28.8516 58.7319H27.292V57.0386L27.3496 56.9292C29.4901 52.8542 28.5529 48.8297 26.9707 44.4136C25.4057 40.0455 23.1943 35.2827 23.1387 30.0181L23.1328 29.5132H23.3809C23.4412 29.1752 23.5825 28.9041 23.8008 28.6978C23.8879 28.6154 23.9829 28.5498 24.0771 28.4956C24.0673 28.4896 24.0585 28.4812 24.0479 28.4751C23.8549 28.3658 23.6384 28.3127 23.5801 28.2993L23.6357 27.3149C24.1653 27.2551 24.5766 26.9318 25.1357 26.5024C25.4722 26.2441 25.8706 25.9437 26.3564 25.7729C26.1809 25.6476 25.9534 25.5309 25.6904 25.436C25.0793 25.2157 24.4174 25.1396 24.126 25.1646L23.583 25.2104V23.2896H24.0322C25.3099 22.3298 25.9733 21.2407 26.2275 20.0884C26.493 18.885 26.324 17.5627 25.8574 16.1792C24.9193 13.3978 22.8345 10.5259 21.0527 8.17041L20.7129 7.72217L21.1533 7.46338L20.6982 7.21143L21.417 6.76025C21.6937 6.58671 22.0019 6.4158 22.334 6.26709C22.2303 6.17506 22.0819 6.09673 21.8828 6.03564C21.6942 5.9778 21.4965 5.94822 21.332 5.93701C21.1474 5.92445 21.0644 5.93915 21.084 5.93408L20.458 6.09619V4.89404L20.7031 4.74854C21.3816 4.34641 21.835 3.61921 21.835 2.78857C21.8348 1.52811 20.8059 0.499512 19.5449 0.499512C18.2857 0.499661 17.258 1.52762 17.2578 2.78857C17.2578 3.61935 17.7107 4.34639 18.3887 4.74951L18.6328 4.89404V6.09619L18.0078 5.93408C18.0262 5.93898 17.9431 5.92453 17.7598 5.93701C17.5954 5.94822 17.3976 5.9778 17.209 6.03564C16.9983 6.10027 16.8442 6.18364 16.7402 6.28271C17.0712 6.43788 17.3738 6.5977 17.6514 6.76221L18.4023 7.20654L17.9365 7.46436L18.3789 7.72314L18.0391 8.17139C16.2572 10.5269 14.1724 13.3989 13.2344 16.1802C12.7678 17.5637 12.5986 18.8861 12.8643 20.0894C13.1187 21.2415 13.7825 22.33 15.0605 23.2896H15.5088V25.2104L14.9668 25.1646C14.6748 25.1396 14.0125 25.2157 13.4014 25.436C13.1381 25.531 12.91 25.6474 12.7344 25.7729C13.2204 25.9437 13.6187 26.244 13.9551 26.5024C14.514 26.9318 14.9251 27.255 15.4551 27.3149L15.5117 28.2993C15.4536 28.3127 15.237 28.3658 15.0439 28.4751C15.0328 28.4814 15.0229 28.4894 15.0127 28.4956C15.1073 28.55 15.2025 28.6151 15.29 28.6978C15.5085 28.9042 15.6506 29.175 15.7109 29.5132H15.959L15.9531 30.0181C15.8975 35.2828 13.685 40.0454 12.1201 44.4136C10.538 48.8298 9.60204 52.8541 11.7432 56.9292L11.7998 57.0386V58.7319H10.2412C10.1519 58.7319 10.0795 58.7427 10.0205 58.7583C10.1814 59.0041 10.2442 59.2906 10.2061 59.5776C10.1461 60.0286 9.84962 60.4317 9.42969 60.6509L9.42773 60.6519L9.22461 60.7476C8.79881 60.9296 8.23575 61.0679 7.5 61.1665C7.5141 61.237 7.53517 61.316 7.56641 61.3979C7.67393 61.68 7.83822 61.8813 7.97266 61.9517L9.64258 62.8247L7.75977 62.895C6.73657 62.9332 6.1052 63.2296 5.68066 63.6128C5.24516 64.0061 4.97768 64.5343 4.7627 65.1265C4.65473 65.4239 4.56614 65.7191 4.4707 66.021C4.37807 66.314 4.27846 66.6157 4.15527 66.8862C3.98212 67.2663 3.73385 67.6419 3.33984 67.8618C3.34795 67.9062 3.35676 67.9501 3.35938 67.9946C3.3742 68.2492 3.29285 68.4575 3.1709 68.6196C3.06547 68.7598 2.92861 68.8644 2.85645 68.9214C2.76437 68.9941 2.72816 69.0249 2.70605 69.0532L2.70508 69.0552L2.69727 69.064C2.69736 69.0661 2.69701 69.0687 2.69727 69.0718C2.69957 69.0996 2.70679 69.1394 2.72363 69.2173C2.73883 69.2875 2.76201 69.3867 2.78125 69.4976L2.86816 70.0005L2.36328 70.0776C1.92534 70.1439 1.41577 70.5818 1.02051 71.3491C0.707969 71.956 0.518829 72.6809 0.503906 73.3569H38.5879Z" stroke="black" stroke-opacity="0.2"/>
</svg>
