<svg width="40" height="74" viewBox="0 0 40 74" fill="none" xmlns="http://www.w3.org/2000/svg">
<path fill-rule="evenodd" clip-rule="evenodd" d="M36.8033 69.583C36.8713 69.19 36.9793 69.001 36.7803 68.745C36.5173 68.409 35.9423 68.342 36.4073 67.551C34.3813 67.338 35.8303 62.562 31.3503 62.395C31.9263 62.094 32.2523 61.071 32.0523 60.718C30.9983 60.605 30.3233 60.43 29.8953 60.208C29.3183 59.908 29.1403 59.133 29.7763 58.765C29.6553 58.42 29.2953 58.231 28.8513 58.231H27.7923V57.162C32.2873 48.604 23.7473 40.323 23.6383 30.013H23.8493C23.7983 29.042 24.3713 28.866 24.7993 28.75C24.7893 28.076 23.8313 27.843 23.6923 27.812C25.0823 27.655 25.7953 26.091 27.1973 26.136C27.0253 25.04 24.8423 24.601 24.0833 24.666V23.789H24.1983C29.9993 19.604 25.0013 12.562 21.4513 7.86896L22.1653 7.45096L21.6823 7.18396C22.0793 6.93496 22.5273 6.69596 23.0113 6.53596C22.8793 5.44096 21.2093 5.38496 20.9583 5.44995V5.17896C21.7783 4.69196 22.3353 3.80695 22.3353 2.78796C22.3353 1.25195 21.0823 -4.57764e-05 19.5453 -4.57764e-05C18.0093 -4.57764e-05 16.7583 1.25195 16.7583 2.78796C16.7583 3.80695 17.3143 4.69196 18.1333 5.17896V5.44995C17.8833 5.38496 16.2123 5.44096 16.0813 6.53596C16.5803 6.74396 17.0133 6.96495 17.3963 7.19196L16.9263 7.45196L17.6403 7.86996C14.0903 12.563 9.09226 19.604 14.8943 23.79H15.0093V24.666C14.2493 24.601 12.0673 25.041 11.8943 26.136C13.2963 26.091 14.0083 27.655 15.3993 27.812C15.2603 27.843 14.3023 28.075 14.2923 28.75C14.7203 28.866 15.2933 29.042 15.2423 30.013H15.4533C15.3443 40.323 6.80426 48.604 11.3003 57.162V58.231H10.2413C9.79626 58.231 9.43726 58.42 9.31526 58.765C9.95126 59.133 9.77326 59.908 9.19826 60.208C8.76926 60.43 8.09326 60.605 7.03926 60.718C6.83826 61.071 7.16526 62.094 7.74126 62.395C3.26126 62.562 4.71026 67.339 2.68626 67.551C3.15026 68.342 2.57426 68.41 2.31226 68.745C2.11126 69.001 2.22026 69.19 2.28826 69.583C0.933258 69.788 -0.167744 72.054 0.0212552 73.856H39.0703C39.2603 72.054 38.1583 69.788 36.8033 69.583Z" fill="#191817"/>
</svg>
