<svg width="145" height="102" viewBox="0 0 145 102" fill="none" xmlns="http://www.w3.org/2000/svg">
<path fill-rule="evenodd" clip-rule="evenodd" d="M31.7275 97.7974C31.7875 97.4594 31.8805 97.2964 31.7085 97.0754C31.4815 96.7864 30.9855 96.7274 31.3855 96.0454C29.6395 95.8624 30.8895 91.7444 27.0265 91.6004C27.5225 91.3414 27.8045 90.4594 27.6315 90.1554C26.7225 90.0584 26.1405 89.9064 25.7715 89.7154C25.2745 89.4564 25.1215 88.7884 25.6695 88.4714C25.5655 88.1744 25.2545 88.0114 24.8715 88.0114H24.7975L24.6735 86.6984L24.0655 85.3814L24.4315 84.1064L24.1235 80.8104L23.5595 79.5914L23.8985 78.4124L23.5725 74.9234L23.0545 73.8024L23.3655 72.7184L23.0215 69.0354L22.5485 68.0134L22.8325 67.0244L22.6515 65.0864H22.7045C22.6605 64.2484 23.1545 64.0974 23.5245 63.9964C23.5155 63.4154 22.6895 63.2154 22.5695 63.1884C23.7685 63.0534 24.3825 61.7054 25.5915 61.7434C25.4425 60.7984 23.5615 60.4204 22.9065 60.4764V59.6214C24.3715 59.4644 25.5265 58.2294 25.5265 56.7244V51.2404H23.0745V53.1384C23.0745 53.4044 22.9195 53.6224 22.7305 53.6224H21.8355C21.6465 53.6224 21.4915 53.4044 21.4915 53.1384V51.2404H18.0635V53.1384C18.0635 53.4044 17.8255 53.6224 17.5355 53.6224H16.1645C15.8735 53.6224 15.6365 53.4044 15.6365 53.1384V51.2404H12.2075V53.1384C12.2075 53.4044 12.0535 53.6224 11.8645 53.6224H10.9695C10.7805 53.6224 10.6255 53.4044 10.6255 53.1384V51.2404H8.17348V56.7244C8.17348 58.2294 9.32848 59.4644 10.7935 59.6214V60.4764C10.1385 60.4204 8.25648 60.7994 8.10848 61.7434C9.31748 61.7054 9.93148 63.0534 11.1295 63.1884C11.0105 63.2154 10.1845 63.4154 10.1755 63.9964C10.5455 64.0974 11.0395 64.2484 10.9955 65.0864H11.0485L10.8675 67.0244L11.1515 68.0134L10.6785 69.0354L10.3335 72.7184L10.6455 73.8024L10.1275 74.9234L9.80148 78.4124L10.1405 79.5914L9.57648 80.8104L9.26848 84.1064L9.63448 85.3814L9.02548 86.6984L8.90248 88.0114H8.82848C8.44548 88.0114 8.13548 88.1744 8.03048 88.4714C8.57948 88.7884 8.42548 89.4564 7.92948 89.7154C7.55948 89.9064 6.97848 90.0584 6.06848 90.1554C5.89648 90.4594 6.17848 91.3414 6.67448 91.6004C2.81148 91.7454 4.06148 95.8624 2.31448 96.0454C2.71548 96.7274 2.21948 96.7864 1.99348 97.0754C1.82048 97.2964 1.91348 97.4594 1.97248 97.7974C0.804481 97.9744 -0.145518 99.9274 0.0184819 101.482H33.6835C33.8465 99.9274 32.8965 97.9744 31.7275 97.7974Z" fill="#191817"/>
<path fill-rule="evenodd" clip-rule="evenodd" d="M142.369 97.7974C142.428 97.4594 142.522 97.2964 142.349 97.0754C142.122 96.7864 141.626 96.7274 142.026 96.0454C140.281 95.8624 141.53 91.7444 137.668 91.6004C138.164 91.3414 138.445 90.4594 138.273 90.1554C137.364 90.0584 136.782 89.9064 136.412 89.7154C135.915 89.4564 135.762 88.7884 136.311 88.4714C136.206 88.1744 135.895 88.0114 135.513 88.0114H134.719L138.867 84.3424C131.692 80.2034 139.773 73.7304 141.794 68.0834C144.219 61.3054 140.425 54.0044 134.833 50.9434C129.12 47.8144 120.609 47.9814 116.272 53.9504C117.892 54.0084 118.445 55.4614 117.88 56.4214C116.568 59.6824 117.092 60.9524 114.854 66.7924L113.988 68.3494C112.686 70.2544 113.191 71.8074 115.569 72.2304C116.99 72.4844 117.647 72.2424 118.184 71.5734L119.396 70.5064C121.934 68.1234 125.971 66.9374 125.882 63.8934C126.319 62.2724 128.316 61.8664 129.49 62.5054C130.886 63.2664 131.375 64.6774 129.772 66.7544C128.81 67.9994 126.976 69.3664 124.463 71.3074C122.336 72.9514 119.814 74.5924 118.637 76.6414C116.571 80.2414 116.405 84.0794 120.655 88.0114H119.467C119.085 88.0114 118.774 88.1744 118.67 88.4714C119.218 88.7884 119.065 89.4564 118.568 89.7154C118.199 89.9064 117.617 90.0584 116.708 90.1554C116.535 90.4594 116.817 91.3414 117.313 91.6004C113.451 91.7454 114.7 95.8624 112.954 96.0454C113.354 96.7274 112.858 96.7864 112.632 97.0754C112.459 97.2964 112.553 97.4594 112.612 97.7974C111.443 97.9744 110.494 99.9274 110.657 101.482H144.322C144.487 99.9274 143.537 97.9744 142.369 97.7974Z" fill="#191817"/>
<path fill-rule="evenodd" clip-rule="evenodd" d="M117.388 97.7974C117.447 97.4594 117.54 97.2964 117.369 97.0754C117.141 96.7864 116.646 96.7274 117.047 96.0454C115.3 95.8624 116.549 91.7444 112.687 91.6004C113.183 91.3414 113.465 90.4594 113.292 90.1554C112.383 90.0584 111.801 89.9064 111.432 89.7154C110.935 89.4564 110.782 88.7884 111.33 88.4714C111.225 88.1744 110.915 88.0114 110.532 88.0114H109.619V87.0894C113.495 79.7114 106.132 72.5724 106.038 63.6834H106.22C106.176 62.8464 106.671 62.6954 107.039 62.5944C107.03 62.0134 106.205 61.8134 106.085 61.7864C107.283 61.6514 107.898 60.3034 109.107 60.3414C108.958 59.3964 107.076 59.0174 106.422 59.0744V58.3184H106.521C111.522 54.7104 107.214 48.6394 104.153 44.5934L104.768 44.2324L104.352 44.0024C104.695 43.7874 105.081 43.5814 105.497 43.4434C105.384 42.4994 103.944 42.4514 103.728 42.5074V42.2744C104.435 41.8544 104.915 41.0914 104.915 40.2134C104.915 38.8884 103.835 37.8084 102.51 37.8084C101.186 37.8084 100.107 38.8884 100.107 40.2134C100.107 41.0914 100.586 41.8544 101.293 42.2744V42.5074C101.077 42.4514 99.637 42.4994 99.523 43.4434C99.953 43.6234 100.327 43.8134 100.657 44.0094L100.252 44.2334L100.867 44.5934C97.807 48.6394 93.498 54.7104 98.5 58.3184H98.599V59.0744C97.944 59.0174 96.062 59.3974 95.914 60.3414C97.122 60.3034 97.736 61.6514 98.935 61.7864C98.815 61.8134 97.99 62.0134 97.981 62.5944C98.35 62.6954 98.844 62.8464 98.8 63.6834H98.982C98.888 72.5724 91.526 79.7114 95.401 87.0894V88.0114H94.488C94.105 88.0114 93.795 88.1744 93.69 88.4714C94.239 88.7884 94.085 89.4564 93.589 89.7154C93.219 89.9064 92.637 90.0584 91.728 90.1554C91.555 90.4594 91.837 91.3414 92.333 91.6004C88.471 91.7454 89.72 95.8624 87.975 96.0454C88.375 96.7274 87.879 96.7864 87.653 97.0754C87.48 97.2964 87.573 97.4594 87.632 97.7974C86.464 97.9744 85.514 99.9274 85.678 101.482H119.343C119.507 99.9274 118.556 97.9744 117.388 97.7974Z" fill="#191817"/>
<path fill-rule="evenodd" clip-rule="evenodd" d="M59.7921 97.7974C59.8521 97.4594 59.9451 97.2964 59.7721 97.0754C59.5461 96.7864 59.0501 96.7274 59.4511 96.0454C57.7041 95.8624 58.9541 91.7444 55.0921 91.6004C55.5871 91.3414 55.8691 90.4594 55.6971 90.1554C54.7871 90.0584 54.2051 89.9064 53.8361 89.7154C53.3391 89.4564 53.1861 88.7884 53.7351 88.4714C53.6301 88.1744 53.3191 88.0114 52.9361 88.0114H52.0231V86.7134C53.9841 85.0634 54.2531 81.2424 53.1931 76.9334C51.9261 71.7834 48.9181 63.4014 48.4551 54.2044H48.9351C48.8881 53.3674 49.4241 53.2154 49.8241 53.1154C49.8141 52.5344 48.9191 52.3334 48.7891 52.3074C50.0881 52.1714 50.7541 50.8234 52.0641 50.8614C51.9031 49.9174 49.8631 49.5374 49.1541 49.5944V47.7264C49.4201 47.7144 49.6341 47.4784 49.6341 47.1864C49.6341 46.9064 49.4361 46.6824 49.1851 46.6534C49.5951 42.9524 50.9881 40.3614 52.8141 38.6934C52.3721 38.4044 51.6701 38.2354 50.8521 38.1984C51.1971 37.8044 51.5661 37.4724 51.9641 37.2344C51.4641 37.0164 50.6411 37.0294 49.7231 37.2374C49.7431 37.0574 49.7561 36.8754 49.7561 36.6894C49.7561 34.2634 47.9561 32.2494 45.6231 31.9044V31.6504C46.0941 31.3954 46.4201 30.9024 46.4201 30.3304C46.4201 29.5004 45.7431 28.8234 44.9141 28.8234C44.0841 28.8234 43.4071 29.5004 43.4071 30.3304C43.4071 30.9014 43.7321 31.3944 44.2041 31.6494V31.9044C41.8721 32.2504 40.0701 34.2634 40.0701 36.6894C40.0701 36.8754 40.0831 37.0574 40.1041 37.2374C39.1861 37.0304 38.3631 37.0164 37.8641 37.2344C38.2611 37.4724 38.6301 37.8044 38.9751 38.1994C38.1571 38.2364 37.4541 38.4054 37.0131 38.6944C38.8401 40.3614 40.2311 42.9534 40.6421 46.6544C40.3931 46.6824 40.1931 46.9074 40.1931 47.1874C40.1931 47.4794 40.4091 47.7174 40.6741 47.7274V49.5964C39.9641 49.5394 37.9241 49.9194 37.7631 50.8634C39.0741 50.8254 39.7391 52.1724 41.0381 52.3084C40.9091 52.3354 40.0131 52.5364 40.0041 53.1164C40.4041 53.2174 40.9401 53.3684 40.8931 54.2054H41.3731C40.9101 63.4024 37.9031 71.7844 36.6351 76.9354C35.5761 81.2444 35.8431 85.0654 37.8051 86.7144V88.0134H36.8911C36.5091 88.0134 36.1981 88.1754 36.0931 88.4734C36.6431 88.7904 36.4891 89.4584 35.9921 89.7164C35.6231 89.9084 35.0411 90.0594 34.1311 90.1564C33.9591 90.4614 34.2401 91.3424 34.7361 91.6024C30.8741 91.7464 32.1241 95.8644 30.3781 96.0474C30.7781 96.7294 30.2821 96.7884 30.0561 97.0774C29.8831 97.2974 29.9761 97.4614 30.0361 97.7994C28.8661 97.9754 27.9181 99.9294 28.0811 101.483H61.7461C61.9101 99.9274 60.9611 97.9744 59.7921 97.7974Z" fill="#191817"/>
<path fill-rule="evenodd" clip-rule="evenodd" d="M63.8841 83.8179V82.1149C61.3131 79.9519 60.9611 74.9419 62.3501 69.2909C64.0121 62.5369 67.9571 48.9669 68.5651 36.8559H67.9331C67.9951 35.7579 67.2931 35.5589 66.7671 35.4279C66.7801 34.6659 67.9541 34.4029 68.1251 34.3679C66.4211 34.1899 65.5481 32.4219 63.8301 32.4729C64.0411 31.2349 66.7171 30.7369 67.6471 30.8109V28.1159C67.2981 28.1009 67.0161 27.7909 67.0161 27.4079C67.0161 27.0149 67.3111 26.6939 67.6721 26.6939H68.2641C68.0091 26.5959 67.8241 26.3379 67.8241 26.0279C67.8241 25.6359 68.1171 25.3149 68.4781 25.3149H69.2041C68.7701 20.2249 67.2521 7.06093 63.5431 2.70593C68.8801 -0.921066 75.2551 0.146935 75.2551 0.146935C75.2551 0.146935 78.6151 0.480934 82.8701 2.70593C79.1601 7.06093 77.6431 20.2259 77.2101 25.3149H77.9361C78.2961 25.3149 78.5901 25.6359 78.5901 26.0279C78.5901 26.3379 78.4041 26.5969 78.1501 26.6939H78.7441C79.1041 26.6939 79.3981 27.0159 79.3981 27.4079C79.3981 27.7919 79.1161 28.1029 78.7671 28.1169V30.8109C79.6991 30.7369 82.3731 31.2339 82.5841 32.4729C80.8661 32.4219 79.9931 34.1899 78.2891 34.3679C78.4591 34.4029 79.6331 34.6659 79.6461 35.4279C79.1211 35.5589 78.4191 35.7579 78.4821 36.8559H77.8501C78.4571 48.9669 82.4021 62.5369 84.0631 69.2909C85.4531 74.9419 85.1021 79.9519 82.5311 82.1149V83.8179H83.7281C84.2291 83.8179 84.6371 84.0309 84.7741 84.4219C84.0551 84.8369 84.2551 85.7129 84.9071 86.0519C85.3911 86.3029 86.1541 86.5019 87.3471 86.6289C87.5731 87.0279 87.2041 88.1839 86.5541 88.5249C91.6181 88.7129 89.9801 94.1129 92.2691 94.3529C91.7441 95.2479 92.3951 95.3239 92.6911 95.7039C92.9181 95.9929 92.7951 96.2069 92.7181 96.6509C94.2501 96.8819 95.4951 99.4439 95.2791 101.482H51.1341C50.9181 99.4439 52.1641 96.8819 53.6961 96.6509C53.6181 96.2069 53.4961 95.9929 53.7221 95.7039C54.0191 95.3249 54.6701 95.2479 54.1441 94.3529C56.4341 94.1139 54.7961 88.7139 59.8601 88.5249C59.2101 88.1839 58.8411 87.0279 59.0661 86.6289C60.2591 86.5019 61.0231 86.3029 61.5061 86.0519C62.1591 85.7129 62.3591 84.8369 61.6391 84.4219C61.7781 84.0309 62.1841 83.8179 62.6871 83.8179H63.8841Z" fill="#191817"/>
</svg>
